<svg width="100" height="100" viewBox="0 0 100 100" fill="none" xmlns="http://www.w3.org/2000/svg">
<path d="M58.7503 60.9913V62.6856C58.7503 64.9868 56.883 66.8666 54.5821 66.8328C47.0164 66.7215 41.7688 65.9743 41.7688 60.9564V53.8876C41.7688 51.9625 40.45 50.2881 38.5785 49.8369L37.8076 49.6511C35.1865 49.0193 32.6646 51.0056 32.6646 53.7018V63.0527C32.6646 71.1404 41.3643 76.124 54.5856 76.9744C56.882 77.1221 58.7503 78.97 58.7503 81.2712V87.1274C58.7503 91.4838 62.3985 100 73.5042 100C84.61 100 88.2905 91.4838 88.2905 87.1274V65.3783C88.2905 54.3134 76.8128 47.4197 70.6262 44.3083C69.1974 43.5897 68.264 42.1543 68.248 40.5551L67.9837 14.1173C67.9298 12.3594 69.3073 8.84376 73.2137 8.84376C77.5269 8.84376 78.928 12.6105 78.928 14.1173V41.7549C78.928 43.1865 79.663 44.5178 80.8744 45.2807L81.9035 45.9288C84.6782 47.6761 88.2905 45.682 88.2905 42.403V12.6105C88.2905 8.81101 83.1573 0 73.2137 0C63.2701 0 58.7503 8.81101 58.7503 12.6105V33.7439C58.7503 36.5333 56.0599 38.5405 53.3502 37.8786C40.5087 34.7418 27.8572 33.8356 26.2723 33.8356C24.8259 33.8356 24.6903 33.115 24.6903 31.903V12.6105C24.6903 11.3331 26.3885 8.81101 28.9196 8.81101C31.4507 8.81101 32.6646 11.3986 32.6646 12.6105V26.5224C32.6646 28.5666 34.1475 30.3089 36.1653 30.6356L36.9362 30.7604C39.4701 31.1706 41.7688 29.2142 41.7688 26.6472V12.6105C41.6073 8.40703 38.7986 0 28.855 0C18.9114 0 16.0812 8.40703 15.909 12.6105V31.903C15.909 43.531 21.2359 44.485 31.1795 45.0049C54.3597 46.2168 78.928 55.814 78.928 65.3783V85.2276C78.8311 87.313 77.6108 91.4838 73.5042 91.4838C69.3977 91.4838 68.3065 87.313 68.2742 85.2276V61.5686C68.2742 59.9722 67.362 58.5161 65.9256 57.8195L64.735 57.2422C61.9678 55.9003 58.7503 57.9159 58.7503 60.9913Z" fill="#1F1F1F"/>
<path d="M24.8518 85.2276V55.4932C24.8518 53.192 22.9125 51.1926 20.7662 52.0226C17.275 53.3727 15.8767 56.4362 15.8767 58.9584V87.6842C15.8767 91.8441 19.4409 100 28.9196 100C38.3983 100 42.1239 92.0079 42.1239 87.6842V82.7348C42.1239 81.0348 41.0911 79.5053 39.5143 78.87L38.9049 78.6245C36.1666 77.5212 33.1811 79.537 33.1811 82.4892V85.2276C33.1811 89.4202 31.8123 91.189 28.9196 91.189C26.0269 91.189 24.8518 87.7825 24.8518 85.2276Z" fill="#1F1F1F"/>
</svg>
